<svg xmlns="http://www.w3.org/2000/svg" width="200" height="200"  xmlns:v="https://vecta.io/nano"><path d="M14.398 14.398c-7.035 0-12.84 5.805-12.84 12.84v145.523c0 7.035 5.805 12.84 12.84 12.84h171.203c7.035 0 12.84-5.805 12.84-12.84V27.238c0-7.035-5.805-12.84-12.84-12.84zm0 8.562h171.203a4.22 4.22 0 0 1 4.277 4.277v145.523a4.22 4.22 0 0 1-4.277 4.277H14.398a4.22 4.22 0 0 1-4.277-4.277V27.238a4.22 4.22 0 0 1 4.277-4.277zM100 61.48a39.37 39.37 0 0 0-4.68.266c-34.809 2.809-62.73 35.445-62.73 35.445-1.402 1.605-1.402 4.012 0 5.617 0 0 27.922 32.637 62.73 35.445a39.37 39.37 0 0 0 4.68.266 39.37 39.37 0 0 0 4.68-.266c34.809-2.809 62.73-35.445 62.73-35.445 1.402-1.605 1.402-4.012 0-5.617 0 0-27.922-32.637-62.73-35.445a39.37 39.37 0 0 0-4.68-.266zm0 8.559c1.02 0 2.055.066 3.078.133h.133c15.078 1.59 26.75 14.313 26.75 29.828s-11.672 28.238-26.75 29.828c-1.055.113-2.125.133-3.211.133-1.035 0-2.074-.035-3.078-.133h-.133c-15.078-1.59-26.75-14.312-26.75-29.828s11.672-28.238 26.75-29.828h.133c1.004-.098 2.043-.133 3.078-.133zM67.098 80.203C63.586 86.008 61.48 92.742 61.48 100s2.105 13.992 5.617 19.797c-12.941-7.609-22.285-17.07-24.879-19.797 2.594-2.727 11.938-12.187 24.879-19.797zm65.805 0c12.941 7.609 22.285 17.07 24.879 19.797-2.594 2.727-11.937 12.188-24.879 19.797 3.512-5.805 5.617-12.539 5.617-19.797s-2.105-13.992-5.617-19.797zM100 82.879c-9.414 0-17.121 7.707-17.121 17.121s7.707 17.121 17.121 17.121 17.121-7.707 17.121-17.121S109.414 82.879 100 82.879zm0 8.563c4.781 0 8.559 3.777 8.559 8.559s-3.777 8.559-8.559 8.559-8.559-3.777-8.559-8.559 3.777-8.559 8.559-8.559zm0 0" fill="rgb(18.431373%,45.09804%,72.941178%)"/></svg>